<svg width="46" height="46" viewBox="0 0 46 46" fill="none" xmlns="http://www.w3.org/2000/svg">
<path d="M23.0498 3.83337C13.6714 3.83217 5.6768 10.6337 4.17525 19.8911C2.67371 29.1485 8.10863 38.1283 17.0066 41.0915C17.9649 41.264 18.308 40.6755 18.308 40.1695C18.308 39.7153 18.2927 38.5116 18.2869 36.9112C12.9682 38.0612 11.845 34.3467 11.845 34.3467C11.4948 33.1909 10.7421 32.1988 9.72324 31.5503C7.99824 30.3639 9.85549 30.3907 9.85549 30.3907C11.0835 30.5591 12.1642 31.2867 12.7822 32.361C13.3054 33.3122 14.1867 34.015 15.2304 34.3134C16.2741 34.6118 17.3938 34.4809 18.3406 33.95C18.4295 32.9801 18.861 32.0737 19.5577 31.3931C15.3142 30.912 10.8522 29.2714 10.8522 21.944C10.8286 20.0488 11.5324 18.2166 12.8187 16.8245C12.2367 15.1749 12.3052 13.3654 13.0103 11.7645C13.0103 11.7645 14.6146 11.249 18.2658 13.7215C21.3974 12.8628 24.7023 12.8628 27.8338 13.7215C31.487 11.247 33.0893 11.7645 33.0893 11.7645C33.7977 13.3647 33.8663 15.1754 33.281 16.8245C34.572 18.2165 35.2752 20.0534 35.2437 21.9516C35.2437 29.2982 30.7778 30.912 26.519 31.3855C27.4377 32.3247 27.9088 33.6133 27.8127 34.9236C27.8127 37.4805 27.7897 39.5428 27.7897 40.1695C27.7897 40.6813 28.1309 41.2755 29.1065 41.0876C38.0007 38.1194 43.4298 29.1391 41.9252 19.8841C40.4205 10.6292 32.4263 3.83123 23.0498 3.83337Z" fill="#F7F7FC"/>
</svg>
