<svg width="40" height="40" viewBox="0 0 40 40" fill="none" xmlns="http://www.w3.org/2000/svg">
<g clip-path="url(#clip0)">
<path fill-rule="evenodd" clip-rule="evenodd" d="M30.6399 37.965C31.1766 38.345 31.8683 38.44 32.4849 38.2067C33.1016 37.9717 33.5549 37.445 33.6916 36.8067C35.1399 30 38.6533 12.7717 39.9716 6.58C40.0716 6.11334 39.9049 5.62834 39.5383 5.31667C39.1716 5.005 38.6633 4.915 38.2099 5.08334C31.2216 7.67 9.69993 15.745 0.903264 19C0.344931 19.2067 -0.0184027 19.7433 -6.93324e-05 20.3317C0.0199307 20.9217 0.416597 21.4333 0.988264 21.605C4.93326 22.785 10.1116 24.4267 10.1116 24.4267C10.1116 24.4267 12.5316 31.735 13.7933 35.4517C13.9516 35.9183 14.3166 36.285 14.7983 36.4117C15.2783 36.5367 15.7916 36.405 16.1499 36.0667C18.1766 34.1533 21.3099 31.195 21.3099 31.195C21.3099 31.195 27.2633 35.56 30.6399 37.965ZM12.2899 23.5033L15.0883 32.7333L15.7099 26.8883C15.7099 26.8883 26.5216 17.1367 32.6849 11.5783C32.8649 11.415 32.8899 11.1417 32.7399 10.95C32.5916 10.7583 32.3183 10.7133 32.1133 10.8433C24.9699 15.405 12.2899 23.5033 12.2899 23.5033Z" fill="#F7F7FC"/>
</g>
<defs>
<clipPath id="clip0">
<rect width="40" height="40" fill="white"/>
</clipPath>
</defs>
</svg>
